<svg xmlns="http://www.w3.org/2000/svg" xmlns:xlink="http://www.w3.org/1999/xlink" viewBox="0 0 40 40" class="design-iconfont">
  <defs>
    <path id="uinnv7pr7a" d="M0 0H40V40H0z"/>
  </defs>
  <g fill="none" fill-rule="evenodd">
    <mask id="q2nh7cu7kb" fill="#fff">
      <use xlink:href="#uinnv7pr7a"/>
    </mask>
    <path d="M33.0217516,15.3342766 C31.8566934,14.6564719 30.6486159,14.2262796 29.2872485,14.0415227 L29.2872485,9.19811706 C30.6486159,8.6204457 31.4934806,7.34184104 31.4934806,5.85018095 C31.4934806,3.81703899 29.8620178,2.16946478 27.829224,2.16946478 C25.7947966,2.16946478 24.1347451,3.81703899 24.1347451,5.85018095 C24.1347451,7.34184104 24.9308728,8.6204457 26.2922402,9.19811706 L26.2922402,14.0436995 C25.2031463,14.2009741 24.0737559,14.5402846 23.0423839,15.061631 C20.935804,13.4627629 14.0282257,8.21746347 9.98741491,5.15387336 C10.0832552,4.80857664 10.1570413,4.45266795 10.1570413,4.07716797 C10.1570413,1.82525646 8.33226441,0 6.07811224,0 C3.82396007,0 2,1.82525646 2,4.07716797 C2,6.32880738 3.82586598,8.15460804 6.08001815,8.15460804 C6.84891847,8.15460804 7.56009681,7.92985225 8.17380124,7.56033849 L9.02656179,8.20685151 L20.7441234,16.6441729 C20.1247013,17.2125929 19.5477537,17.8591059 19.0862502,18.5845283 C18.1509908,20.0633996 17.5794887,21.6905662 17.5794887,23.4654839 L17.5794887,23.835814 C17.5794887,25.0817665 17.8163667,26.258061 18.219876,27.363065 C18.5751929,28.3279367 19.0946907,29.2051917 19.7380729,29.9983674 L15.8491907,33.8943158 C15.5042202,33.7672444 15.1418242,33.6975865 14.7636364,33.6975865 C13.9217668,33.6975865 13.1321736,34.026285 12.5367115,34.6202824 C11.9407049,35.2159125 11.614249,36.0069114 11.614249,36.8487932 C11.6145213,37.690403 11.9426108,38.4814019 12.5383452,39.0764877 C13.1338073,39.6718457 13.9253063,40 14.7677205,40 C15.6101346,40 16.4019059,39.6718457 16.9979126,39.0764877 C17.5925579,38.4814019 17.9209197,37.6901309 17.9209197,36.8487932 C17.9209197,36.5230878 17.8705491,36.2052733 17.7757979,35.9032407 L21.7953714,31.885663 C22.3464529,32.2660608 22.9416427,32.5863242 23.5814854,32.8625071 C24.843473,33.4077984 26.2364241,33.7400343 27.7608834,33.7400343 L28.040236,33.7400343 C29.7256088,33.7400343 31.3154137,33.3443988 32.8099229,32.5351691 C34.3847527,31.6799543 35.6173347,30.5104623 36.5485101,29.0174417 C37.4845863,27.5203396 38,25.8662349 38,24.0464205 L38,23.9555386 C38,22.1653833 37.5853275,20.5137275 36.7143246,19.0005714 C35.8278021,17.4762591 34.5807896,16.2542516 33.0217516,15.3342766 Z M31.8030555,27.4283693 C30.7120557,28.640037 29.457964,29.3864113 28.040236,29.3864113 L27.8066253,29.3864113 C26.996884,29.3864113 26.2048404,29.1627439 25.4294055,28.7559522 C24.5554077,28.3080732 23.8910604,27.6691791 23.3473302,26.8602215 C22.7853577,26.0662295 22.4804114,25.1993143 22.4804114,24.2801556 L22.4804114,24.0009796 C22.4804114,23.0973307 22.6538496,22.2404833 23.0911209,21.4312536 C23.5586144,20.5466518 24.1900166,19.8587794 25.0297081,19.3118555 C25.8541522,18.768741 26.7346846,18.5023537 27.7154137,18.5023537 L27.8066253,18.5023537 C28.6958705,18.5023537 29.5377401,18.677587 30.3322342,19.0838345 C31.1417032,19.5170199 31.8030555,20.1088406 32.3157465,20.8873228 C32.8137347,21.6660771 33.1099682,22.5060543 33.205264,23.4211314 C33.220239,23.6113303 33.2278627,23.8061549 33.2278627,23.9922723 C33.2278627,25.2341433 32.7530177,26.3843161 31.8030555,27.4283693 L31.8030555,27.4283693 Z" fill="#F8761F" fill-rule="nonzero" mask="url(#q2nh7cu7kb)"/>
  </g>
</svg>
